<svg width="112" height="32" viewBox="0 0 112 32" fill="none" xmlns="http://www.w3.org/2000/svg">
<path d="M31.814 0.180314C31.6432 0.0118144 31.3908 -0.0444355 31.165 0.0364394L5.20549 9.29248C4.30361 8.74098 3.15968 8.61186 2.11049 9.0463C0.368934 9.76773 -0.461127 11.7715 0.260246 13.5132C1.96143 17.62 4.41761 21.296 7.56079 24.4392C10.704 27.5824 14.38 30.0386 18.4868 31.7397C18.9133 31.9164 19.3553 32 19.7906 32C21.1328 31.9999 22.409 31.2046 22.9536 29.8894C23.3201 29.0046 23.2855 28.0522 22.9349 27.2344L31.9662 0.827375C32.0439 0.600376 31.9847 0.348876 31.814 0.180314ZM9.1361 9.21805L11.8873 8.23717C12.2103 8.5813 12.3678 9.05505 12.3047 9.53417C12.2491 9.95604 12.0326 10.3311 11.695 10.5902C11.3575 10.8492 10.9395 10.9612 10.5173 10.9057C10.0955 10.8502 9.72048 10.6337 9.46142 10.2961C9.22273 9.98504 9.10917 9.60555 9.1361 9.21805ZM21.7988 29.411C21.3411 30.5159 20.0698 31.0424 18.9651 30.5847C10.9627 27.27 4.72999 21.0373 1.41518 13.0348C1.19349 12.4996 1.19349 11.9102 1.41518 11.3749C1.63687 10.8397 2.05368 10.4229 2.58887 10.2012C3.12405 9.97954 3.71355 9.97954 4.24874 10.2012C4.78393 10.4229 5.20074 10.8397 5.42242 11.3749C6.84123 14.8003 8.88998 17.8665 11.5117 20.4882C14.1335 23.11 17.1996 25.1586 20.625 26.5775C21.7299 27.0351 22.2565 28.3063 21.7988 29.411ZM27.3514 10.458C27.2949 10.4567 27.2383 10.4534 27.1818 10.446C26.7599 10.3905 26.3849 10.174 26.1259 9.83642C25.8669 9.49886 25.7548 9.08055 25.8103 8.65873C25.925 7.78786 26.7266 7.17274 27.5978 7.28724C27.8665 7.32261 28.1188 7.42686 28.334 7.58542L27.3514 10.458ZM28.7494 6.37018C28.4449 6.20436 28.1104 6.09393 27.7609 6.04793C26.2064 5.84274 24.7756 6.9413 24.571 8.49561C24.4719 9.24848 24.6719 9.99492 25.1342 10.5974C25.5795 11.1777 26.217 11.5569 26.9361 11.6725L25.6939 15.3049L24.2653 14.2087C23.9914 13.9987 23.599 14.0502 23.389 14.324C23.1788 14.5979 23.2305 14.9902 23.5043 15.2003L25.2671 16.553L22.0363 26.0001C21.7653 25.7645 21.4532 25.5674 21.1036 25.4226C14.4799 22.6789 9.32117 17.5202 6.57761 10.8965C6.48223 10.6662 6.36373 10.4523 6.22705 10.2553L7.90073 9.65854C7.95917 10.1628 8.15273 10.6438 8.46979 11.057C8.93204 11.6595 9.60135 12.0459 10.3542 12.1449C10.4804 12.1615 10.6061 12.1698 10.7312 12.1698C11.353 12.1698 11.9545 11.9667 12.456 11.5819C13.0586 11.1195 13.4449 10.4503 13.5441 9.69729C13.633 9.02136 13.4753 8.35186 13.1211 7.79724L20.8903 5.02712L21.1847 5.73799C21.2845 5.97868 21.5171 6.12399 21.7624 6.12399C21.8421 6.12399 21.9231 6.10861 22.0013 6.07624C22.3202 5.94418 22.4716 5.57849 22.3396 5.25962L22.0692 4.6068L30.3641 1.64919L28.7494 6.37018Z" fill="#FF7010"/>
<path d="M6.74992 16.7673C6.74805 16.7643 6.74286 16.7564 6.74086 16.7535C6.54949 16.4665 6.16217 16.3894 5.87499 16.5806C5.5883 16.7715 5.51055 17.1589 5.7003 17.4461C5.81999 17.63 6.02024 17.7303 6.2248 17.7303C6.34055 17.7303 6.45761 17.6981 6.56211 17.631C6.85248 17.4443 6.93655 17.0576 6.74992 16.7673Z" fill="#FF7010"/>
<path d="M5.79936 15.2146C5.1903 14.1467 4.6428 13.0291 4.17212 11.8929C4.04006 11.5739 3.67424 11.4226 3.35556 11.5547C3.03662 11.6868 2.88525 12.0524 3.01737 12.3713C3.50799 13.5557 4.07874 14.7207 4.71362 15.8338C4.82893 16.0359 5.03993 16.1493 5.25705 16.1493C5.36205 16.1493 5.46849 16.1228 5.56611 16.0671C5.86593 15.8961 5.97043 15.5144 5.79936 15.2146Z" fill="#FF7010"/>
<path d="M19.5582 7.99923C19.4343 7.98286 19.3085 7.97461 19.1843 7.97461C17.7645 7.97461 16.5538 9.03742 16.3683 10.4468C16.1637 12.001 17.2616 13.432 18.8159 13.6367C18.9398 13.653 19.0656 13.6613 19.1898 13.6613C20.6096 13.6613 21.8202 12.5985 22.0058 11.189C22.2103 9.63479 21.1124 8.20386 19.5582 7.99923ZM20.7665 11.0259C20.6625 11.8157 19.9847 12.4112 19.1898 12.4112C19.12 12.4112 19.049 12.4066 18.9791 12.3973C18.1081 12.2827 17.493 11.4809 17.6076 10.6099C17.7116 9.82017 18.3894 9.22467 19.1843 9.22467C19.2541 9.22467 19.3251 9.22929 19.395 9.23854C20.2659 9.35329 20.8811 10.155 20.7665 11.0259Z" fill="#FF7010"/>
<path d="M19.3956 15.7734C19.2717 15.757 19.1459 15.7488 19.0217 15.7488C17.6018 15.7488 16.3912 16.8116 16.2057 18.221C16.1065 18.974 16.3065 19.7203 16.7689 20.3229C17.2311 20.9254 17.9003 21.3118 18.6533 21.411C18.7771 21.4273 18.9028 21.4355 19.027 21.4355C20.4468 21.4355 21.6575 20.3726 21.8431 18.9631C22.0478 17.409 20.9498 15.9782 19.3956 15.7734ZM20.6039 18.8001C20.4999 19.5899 19.822 20.1855 19.0272 20.1855C18.9573 20.1855 18.8864 20.1808 18.8165 20.1716C18.3947 20.116 18.0197 19.8995 17.7606 19.5619C17.5015 19.2243 17.3895 18.8061 17.445 18.3841C17.549 17.5944 18.2268 16.9988 19.0217 16.9988C19.0915 16.9988 19.1625 17.0035 19.2324 17.0127C20.1032 17.1274 20.7185 17.9292 20.6039 18.8001Z" fill="#FF7010"/>
<path d="M15.2734 13.1841L13.3524 12.9312C13.0103 12.8857 12.6962 13.127 12.6511 13.4692C12.606 13.8114 12.8469 14.1253 13.1891 14.1704L15.1101 14.4233C15.1378 14.427 15.1653 14.4288 15.1925 14.4288C15.5013 14.4288 15.7699 14.1998 15.8113 13.8853C15.8565 13.5432 15.6156 13.2292 15.2734 13.1841Z" fill="#FF7010"/>
<path d="M14.2993 17.7964L14.1297 16.5074C14.0846 16.1651 13.7707 15.9241 13.4285 15.9693C13.0862 16.0144 12.8454 16.3283 12.8904 16.6705L13.0601 17.9595C13.1015 18.2741 13.37 18.503 13.6789 18.503C13.7061 18.503 13.7336 18.5012 13.7612 18.4976C14.1035 18.4525 14.3443 18.1386 14.2993 17.7964Z" fill="#FF7010"/>
<path d="M34.1612 11.2727H35.7166V18.6875H38.4098V11.2727H39.9567V18.6875H42.6286V11.2727H44.1754V20H34.1612V11.2727ZM46.0621 20V13.4545H48.8107C49.5863 13.4545 50.1985 13.6094 50.6474 13.919C51.0991 14.2287 51.3249 14.6605 51.3249 15.2145C51.3249 15.581 51.1971 15.8807 50.9414 16.1136C50.6886 16.3437 50.3434 16.4986 49.9059 16.5781C50.2496 16.6065 50.5508 16.6932 50.8093 16.8381C51.0707 16.983 51.2752 17.1733 51.4229 17.4091C51.5707 17.6449 51.6445 17.9162 51.6445 18.223C51.6445 18.5838 51.5494 18.8977 51.359 19.1648C51.1715 19.429 50.8974 19.6349 50.5366 19.7827C50.1786 19.9276 49.744 20 49.2326 20H46.0621ZM47.5067 18.7855H49.2326C49.5167 18.7855 49.7397 18.7187 49.9016 18.5852C50.0636 18.4489 50.1445 18.2642 50.1445 18.0312C50.1445 17.7614 50.0636 17.5497 49.9016 17.3963C49.7397 17.2401 49.5167 17.1619 49.2326 17.1619H47.5067V18.7855ZM47.5067 16.1648H48.8406C49.0508 16.1648 49.2312 16.1349 49.3817 16.0753C49.5323 16.0128 49.6474 15.9261 49.7269 15.8153C49.8065 15.7017 49.8462 15.5668 49.8462 15.4105C49.8462 15.1861 49.7539 15.0099 49.5692 14.8821C49.3874 14.7543 49.1346 14.6903 48.8107 14.6903H47.5067V16.1648ZM54.4048 17.9119L57.0256 13.4545H58.6108V20H57.1193V15.5384L54.5071 20H52.9176V13.4545H54.4048V17.9119ZM59.6154 21.9006V18.7301H60.1353C60.2745 18.6222 60.391 18.4759 60.4847 18.2912C60.5785 18.1037 60.6552 17.8835 60.7148 17.6307C60.7773 17.375 60.8285 17.0895 60.8683 16.7741C60.908 16.456 60.9435 16.1136 60.9748 15.7472L61.1623 13.4545H65.8924V18.7301H66.9066V21.9006H65.4151V20H61.1325V21.9006H59.6154ZM61.7205 18.7301H64.418V14.6989H62.5004L62.3981 15.7472C62.3413 16.4403 62.266 17.0341 62.1722 17.5284C62.0785 18.0227 61.9279 18.4233 61.7205 18.7301ZM68.0582 20V13.4545H69.6009V16.0966H70.1634L72.1321 13.4545H73.9901L71.5653 16.6676L74.0156 20H72.1491L70.3551 17.5327H69.6009V20H68.0582ZM77.4759 20.1278C76.8366 20.1278 76.2827 19.9872 75.8139 19.706C75.3452 19.4247 74.9815 19.0312 74.723 18.5256C74.4673 18.0199 74.3395 17.429 74.3395 16.7528C74.3395 16.0767 74.4673 15.4844 74.723 14.9759C74.9815 14.4673 75.3452 14.0724 75.8139 13.7912C76.2827 13.5099 76.8366 13.3693 77.4759 13.3693C78.1151 13.3693 78.669 13.5099 79.1378 13.7912C79.6065 14.0724 79.9688 14.4673 80.2244 14.9759C80.483 15.4844 80.6122 16.0767 80.6122 16.7528C80.6122 17.429 80.483 18.0199 80.2244 18.5256C79.9688 19.0312 79.6065 19.4247 79.1378 19.706C78.669 19.9872 78.1151 20.1278 77.4759 20.1278ZM77.4844 18.892C77.831 18.892 78.1207 18.7969 78.3537 18.6065C78.5866 18.4134 78.7599 18.1548 78.8736 17.831C78.9901 17.5071 79.0483 17.1463 79.0483 16.7486C79.0483 16.348 78.9901 15.9858 78.8736 15.6619C78.7599 15.3352 78.5866 15.0753 78.3537 14.8821C78.1207 14.6889 77.831 14.5923 77.4844 14.5923C77.1293 14.5923 76.8338 14.6889 76.598 14.8821C76.3651 15.0753 76.1903 15.3352 76.0739 15.6619C75.9602 15.9858 75.9034 16.348 75.9034 16.7486C75.9034 17.1463 75.9602 17.5071 76.0739 17.831C76.1903 18.1548 76.3651 18.4134 76.598 18.6065C76.8338 18.7969 77.1293 18.892 77.4844 18.892ZM92.087 11.2727V20H90.5188V12.5852H86.7006V20H85.1325V11.2727H92.087ZM93.9098 20V13.4545H95.4524V20H93.9098ZM94.6854 12.5256C94.4411 12.5256 94.2308 12.4446 94.0547 12.2827C93.8786 12.1179 93.7905 11.9205 93.7905 11.6903C93.7905 11.4574 93.8786 11.2599 94.0547 11.098C94.2308 10.9332 94.4411 10.8509 94.6854 10.8509C94.9325 10.8509 95.1428 10.9332 95.3161 11.098C95.4922 11.2599 95.5803 11.4574 95.5803 11.6903C95.5803 11.9205 95.4922 12.1179 95.3161 12.2827C95.1428 12.4446 94.9325 12.5256 94.6854 12.5256ZM102.566 13.4545V18.8494H103.567V22.1051H102.059V20H97.0387V13.4545H98.5259V18.7344H101.091V13.4545H102.566ZM106.715 20.1321C106.3 20.1321 105.927 20.0582 105.594 19.9105C105.265 19.7599 105.004 19.5384 104.81 19.2457C104.62 18.9531 104.525 18.5923 104.525 18.1634C104.525 17.794 104.593 17.4886 104.729 17.2472C104.866 17.0057 105.052 16.8125 105.288 16.6676C105.523 16.5227 105.789 16.4134 106.085 16.3395C106.383 16.2628 106.691 16.2074 107.009 16.1733C107.393 16.1335 107.704 16.098 107.942 16.0668C108.181 16.0327 108.354 15.9815 108.462 15.9134C108.573 15.8423 108.629 15.733 108.629 15.5852V15.5597C108.629 15.2386 108.533 14.9901 108.343 14.8139C108.153 14.6378 107.879 14.5497 107.521 14.5497C107.143 14.5497 106.843 14.6321 106.621 14.7969C106.403 14.9616 106.255 15.1562 106.178 15.3807L104.738 15.1761C104.852 14.7784 105.039 14.446 105.3 14.179C105.562 13.9091 105.881 13.7074 106.259 13.5739C106.637 13.4375 107.055 13.3693 107.512 13.3693C107.827 13.3693 108.141 13.4062 108.454 13.4801C108.766 13.554 109.052 13.6761 109.31 13.8466C109.569 14.0142 109.776 14.2429 109.933 14.5327C110.092 14.8224 110.171 15.1847 110.171 15.6193V20H108.688V19.1009H108.637C108.543 19.2827 108.411 19.4531 108.241 19.6122C108.073 19.7685 107.862 19.8949 107.606 19.9915C107.353 20.0852 107.056 20.1321 106.715 20.1321ZM107.116 18.9986C107.425 18.9986 107.694 18.9375 107.921 18.8153C108.148 18.6903 108.323 18.5256 108.445 18.321C108.57 18.1165 108.633 17.8935 108.633 17.652V16.8807C108.585 16.9205 108.502 16.9574 108.386 16.9915C108.272 17.0256 108.144 17.0554 108.002 17.081C107.86 17.1065 107.719 17.1293 107.58 17.1491C107.441 17.169 107.32 17.1861 107.218 17.2003C106.988 17.2315 106.782 17.2827 106.6 17.3537C106.418 17.4247 106.275 17.5241 106.17 17.652C106.065 17.777 106.012 17.9389 106.012 18.1378C106.012 18.4219 106.116 18.6364 106.323 18.7812C106.531 18.9261 106.795 18.9986 107.116 18.9986Z" fill="black"/>
</svg>
