<svg width="24" height="24" viewBox="0 0 24 24" fill="none" xmlns="http://www.w3.org/2000/svg">
<path d="M12.5728 23.9999C11.6442 24.0033 10.7223 23.8465 9.84957 23.5367C6.72079 22.4158 4.63365 20.6507 3.64674 18.2907C2.02692 14.4163 3.95022 10.3786 4.03267 10.2089C4.06332 10.1457 4.113 10.0932 4.17504 10.0584C4.23708 10.0237 4.30852 10.0082 4.37978 10.0142C4.45105 10.0202 4.51873 10.0474 4.57376 10.092C4.62879 10.1367 4.66854 10.1967 4.68768 10.2641C4.96976 11.0477 5.46749 11.74 6.12612 12.2651C6.92919 8.32616 10.4449 5.94251 10.6011 5.83793C12.8696 4.06322 11.0168 0.53712 10.9979 0.501804C10.9605 0.431932 10.9489 0.351595 10.965 0.274331C10.9811 0.197067 11.024 0.127598 11.0864 0.0776288C11.1488 0.0276594 11.227 0.000243855 11.3077 1.61908e-06C11.3883 -0.000240617 11.4667 0.0267052 11.5294 0.0762989C17.7768 5.03081 17.4175 10.021 16.9134 12.0714C17.3826 11.7123 17.7472 11.2391 17.9706 10.6991C18.1939 10.1592 18.2683 9.57131 18.1862 8.99442C18.1752 8.91772 18.1911 8.83965 18.2313 8.77291C18.2715 8.70616 18.3336 8.65469 18.4076 8.62686C18.4815 8.59903 18.5629 8.59649 18.6386 8.61965C18.7142 8.64281 18.7796 8.69031 18.824 8.75441C19.502 9.78709 20.0525 10.8946 20.4638 12.0539C21.0064 13.5722 21.14 15.2015 20.8517 16.7849C20.5634 18.3683 19.8629 19.8525 18.8177 21.0947L18.7426 21.1842C17.9911 22.0701 17.048 22.7821 15.9812 23.269C14.9143 23.7559 13.7502 24.0055 12.5728 23.9999ZM10.0909 22.8928C10.8864 23.1749 11.7266 23.3175 12.5728 23.3142C13.6465 23.3194 14.7081 23.092 15.6811 22.6483C16.6542 22.2046 17.5145 21.5556 18.2002 20.7481L18.2704 20.6624C19.2399 19.511 19.8898 18.1352 20.1577 16.6673C20.4256 15.1994 20.3024 13.6888 19.8001 12.2809C19.5394 11.5563 19.2242 10.8516 18.857 10.1725C18.4711 12.2356 16.4513 13.195 16.4267 13.2063C16.3614 13.2365 16.288 13.2463 16.2168 13.2342C16.1455 13.2221 16.0798 13.1889 16.0287 13.1389C15.9775 13.0889 15.9434 13.0248 15.931 12.9551C15.9186 12.8855 15.9285 12.8138 15.9594 12.7499C16.0703 12.5174 18.4855 7.22965 12.1283 1.48962C12.5338 2.86351 12.7763 5.0123 11.0158 6.38859C10.9572 6.42905 7.23126 8.96219 6.72255 12.9375C6.71493 12.9956 6.69218 13.0509 6.65648 13.098C6.62079 13.1451 6.57333 13.1824 6.51864 13.2065C6.46396 13.2306 6.40387 13.2406 6.34412 13.2355C6.28437 13.2304 6.22695 13.2104 6.17734 13.1775C5.44403 12.6693 4.82633 12.0182 4.36316 11.2653C3.9025 12.5822 3.191 15.3938 4.2979 18.0339C5.20798 20.206 7.15688 21.8398 10.0906 22.8911L10.0909 22.8928Z" fill="#E23535"/>
<path d="M11.078 23.86C10.9953 23.86 10.9153 23.8315 10.852 23.7794C6.38128 20.0963 9.53111 15.3862 9.56339 15.3393C9.60421 15.2797 9.66311 15.2341 9.73181 15.2089C9.80052 15.1838 9.87557 15.1803 9.9464 15.199C10.0172 15.2177 10.0803 15.2576 10.1267 15.3132C10.1731 15.3687 10.2005 15.4371 10.2051 15.5086C10.2139 16.0347 10.4071 16.5419 10.7524 16.9456C10.5704 15.6523 10.7638 14.3351 11.3106 13.144C11.8574 11.9529 12.7356 10.9359 13.845 10.2089C13.9106 10.1716 13.9868 10.1561 14.0622 10.1647C14.1375 10.1733 14.208 10.2055 14.263 10.2566C14.3181 10.3077 14.3547 10.3748 14.3673 10.4479C14.38 10.521 14.3681 10.5962 14.3334 10.6621C14.1398 11.0193 14.0425 11.4187 14.0506 11.8228C14.0688 12.2929 14.2214 12.7487 14.4913 13.1384L14.6316 13.3479C15.0965 14.0223 15.6002 14.6705 16.1402 15.2892C16.5605 15.7861 16.8968 16.3456 17.1362 16.9463C18.8946 20.4892 15.8732 23.2819 15.8437 23.31C15.7752 23.37 15.6854 23.4013 15.5935 23.3971C15.5016 23.3929 15.4151 23.3537 15.3525 23.2878C15.29 23.2219 15.2564 23.1346 15.259 23.0448C15.2617 22.9549 15.3003 22.8697 15.3666 22.8074C15.4764 22.7073 18.0418 20.3181 16.4974 17.2306C16.4913 17.2184 16.4861 17.2059 16.4816 17.1932C16.269 16.6621 15.9715 16.1674 15.6003 15.7274C15.0429 15.0888 14.5232 14.4197 14.0436 13.7233L13.9033 13.5138C13.5615 13.0166 13.3692 12.4358 13.3482 11.8372C13.3454 11.7035 13.3515 11.5699 13.3665 11.437C12.3561 12.3707 10.8755 14.3583 11.5737 17.6087C11.5863 17.667 11.5831 17.7275 11.5644 17.7842C11.5458 17.8409 11.5124 17.8919 11.4674 17.9322C11.4225 17.9724 11.3676 18.0005 11.3082 18.0138C11.2487 18.027 11.1868 18.0248 11.1285 18.0075C10.7936 17.8823 10.4918 17.6852 10.2453 17.4308C9.9988 17.1764 9.81384 16.8712 9.70407 16.5376C9.08169 17.9228 8.3358 20.8101 11.3035 23.2559C11.3586 23.3012 11.3981 23.3619 11.4166 23.4299C11.4351 23.4979 11.4318 23.5698 11.4071 23.6358C11.3824 23.7019 11.3375 23.759 11.2785 23.7992C11.2195 23.8395 11.1492 23.8611 11.0773 23.861L11.078 23.86Z" fill="#E23535"/>
</svg>
